<?xml version="1.0" encoding="utf-8"?>
<!-- Generator: Adobe Illustrator 24.0.3, SVG Export Plug-In . SVG Version: 6.00 Build 0)  -->
<!DOCTYPE svg PUBLIC "-//W3C//DTD SVG 1.1//EN" "http://www.w3.org/Graphics/SVG/1.1/DTD/svg11.dtd" [
	<!ENTITY st0 "display:none;">
	<!ENTITY st1 "display:inline;">
	<!ENTITY st2 "fill:#EDD1B7;stroke:#231F20;stroke-width:5;stroke-linecap:round;stroke-linejoin:round;stroke-miterlimit:10;">
	<!ENTITY st3 "opacity:0.3;fill:#231F20;">
	
		<!ENTITY st4 "opacity:0.3;fill:#231F20;stroke:#231F20;stroke-width:4;stroke-linecap:round;stroke-linejoin:round;stroke-miterlimit:10;">
	<!ENTITY st5 "fill:#231F20;">
	<!ENTITY st6 "fill:none;stroke:#231F20;stroke-width:4;stroke-linecap:round;stroke-linejoin:round;stroke-miterlimit:10;">
	<!ENTITY st7 "fill:#B8775D;">
	<!ENTITY st8 "fill:#EDD1B7;">
	<!ENTITY st9 "fill:#231F20;stroke:#231F20;stroke-width:0.75;stroke-linecap:round;stroke-linejoin:round;stroke-miterlimit:10;">
	<!ENTITY st10 "fill:#231F20;stroke:#231F20;stroke-width:2;stroke-linecap:round;stroke-linejoin:round;stroke-miterlimit:10;">
	<!ENTITY st11 "fill:none;stroke:#231F20;stroke-width:5;stroke-linecap:round;stroke-linejoin:round;stroke-miterlimit:10;">
	<!ENTITY st12 "fill:#FFC384;stroke:#231F20;stroke-width:5;stroke-linecap:round;stroke-linejoin:round;stroke-miterlimit:10;">
	<!ENTITY st13 "fill:#FFC283;">
	<!ENTITY st14 "fill:#F0F1F1;">
	<!ENTITY st15 "fill:#414042;stroke:#231F20;stroke-width:4;stroke-linecap:round;stroke-linejoin:round;stroke-miterlimit:10;">
	<!ENTITY st16 "fill:#2B2B2B;stroke:#231F20;stroke-width:4;stroke-linecap:round;stroke-linejoin:round;stroke-miterlimit:10;">
	<!ENTITY st17 "fill:#353535;stroke:#231F20;stroke-width:4;stroke-linecap:round;stroke-linejoin:round;stroke-miterlimit:10;">
	<!ENTITY st18 "fill:#808184;stroke:#231F20;stroke-width:4;stroke-linecap:round;stroke-linejoin:round;stroke-miterlimit:10;">
	<!ENTITY st19 "opacity:0.98;fill:#231F20;">
	<!ENTITY st20 "opacity:0.95;fill:url(#SVGID_1_);">
	<!ENTITY st21 "opacity:0.72;">
	<!ENTITY st22 "fill:url(#SVGID_2_);">
	<!ENTITY st23 "fill:#FBB040;">
	<!ENTITY st24 "fill:url(#SVGID_3_);">
	<!ENTITY st25 "fill:url(#SVGID_4_);">
	<!ENTITY st26 "opacity:0.9;fill:url(#SVGID_5_);">
	<!ENTITY st27 "opacity:0.9;fill:url(#SVGID_6_);">
	<!ENTITY st28 "opacity:0.05;fill:#F1F2F2;">
	<!ENTITY st29 "fill:#C8C8C8;">
	<!ENTITY st30 "fill:#D1D3D4;stroke:#231F20;stroke-width:5;stroke-linecap:round;stroke-linejoin:round;stroke-miterlimit:10;">
	<!ENTITY st31 "opacity:0.8;fill:#59B3DD;">
	<!ENTITY st32 "opacity:0.2;fill:#FFFFFF;">
	<!ENTITY st33 "opacity:0.8;fill:#D71A22;">
	<!ENTITY st34 "fill:#F1F2F2;stroke:#231F20;stroke-width:5;stroke-linecap:round;stroke-linejoin:round;stroke-miterlimit:10;">
	<!ENTITY st35 "fill:#E6E7E8;">
	<!ENTITY st36 "fill:#BCBEC0;">
	<!ENTITY st37 "fill:#5B5F60;">
	<!ENTITY st38 "fill:#F1F2F2;">
	<!ENTITY st39 "fill:#6D7172;">
	<!ENTITY st40 "opacity:0.6;">
	<!ENTITY st41 "fill:url(#SVGID_7_);">
	<!ENTITY st42 "fill:#231F20;stroke:#231F20;stroke-width:4;stroke-linecap:round;stroke-linejoin:round;stroke-miterlimit:10;">
	<!ENTITY st43 "fill:#CFD1D2;stroke:#231F20;stroke-width:5;stroke-linecap:round;stroke-linejoin:round;stroke-miterlimit:10;">
	<!ENTITY st44 "fill:#E4E5E6;">
	<!ENTITY st45 "fill:none;stroke:#231F20;stroke-width:3;stroke-linecap:round;stroke-linejoin:round;stroke-miterlimit:10;">
	<!ENTITY st46 "fill:#231F20;stroke:#231F20;stroke-width:3;stroke-linecap:round;stroke-linejoin:round;stroke-miterlimit:10;">
	<!ENTITY st47 "clip-path:url(#SVGID_9_);">
	<!ENTITY st48 "opacity:0.4;fill:#7CFFFD;">
	<!ENTITY st49 "fill:#7CFFFD;">
	<!ENTITY st50 "fill:#CFD1D2;">
	<!ENTITY st51 "fill:#474948;">
	<!ENTITY st52 "fill:#CFD1D2;stroke:#231F20;stroke-width:4;stroke-linecap:round;stroke-linejoin:round;stroke-miterlimit:10;">
	<!ENTITY st53 "fill:#231F20;stroke:#231F20;stroke-width:5;stroke-linecap:round;stroke-linejoin:round;stroke-miterlimit:10;">
	<!ENTITY st54 "fill:#7CFFFD;stroke:#231F20;stroke-width:5;stroke-linecap:round;stroke-linejoin:round;stroke-miterlimit:10;">
	<!ENTITY st55 "opacity:0.6;fill:#FFFFFF;">
	<!ENTITY st56 "clip-path:url(#SVGID_11_);">
	<!ENTITY st57 "fill:#F7D81D;stroke:#231F20;stroke-width:4;stroke-linecap:round;stroke-linejoin:round;stroke-miterlimit:10;">
	<!ENTITY st58 "fill-rule:evenodd;clip-rule:evenodd;fill:#BB7F4B;">
	<!ENTITY st59 "fill-rule:evenodd;clip-rule:evenodd;fill:#FFFFFF;">
	<!ENTITY st60 "fill-rule:evenodd;clip-rule:evenodd;fill:#542583;">
	<!ENTITY st61 "fill:#FFFFFF;">
	<!ENTITY st62 "fill:#C80F2E;">
	<!ENTITY st63 "fill:#1D4289;">
	<!ENTITY st64 "fill:#542583;stroke:#231F20;stroke-width:4;stroke-linecap:round;stroke-linejoin:round;stroke-miterlimit:10;">
	
		<!ENTITY st65 "opacity:0.4;fill:none;stroke:#231F20;stroke-width:4;stroke-linecap:round;stroke-linejoin:round;stroke-miterlimit:10;">
	<!ENTITY st66 "fill:#F1F2F2;stroke:#231F20;stroke-width:4;stroke-linecap:round;stroke-linejoin:round;stroke-miterlimit:10;">
	
		<!ENTITY st67 "display:inline;fill:none;stroke:#231F20;stroke-width:5;stroke-linecap:round;stroke-linejoin:round;stroke-miterlimit:10;">
	<!ENTITY st68 "clip-path:url(#SVGID_13_);">
	<!ENTITY st69 "clip-path:url(#SVGID_15_);">
	<!ENTITY st70 "fill:#CFD1D2;stroke:#231F20;stroke-width:3;stroke-linecap:round;stroke-linejoin:round;stroke-miterlimit:10;">
	<!ENTITY st71 "fill:#FFFFFF;stroke:#231F20;stroke-width:4;stroke-linecap:round;stroke-linejoin:round;stroke-miterlimit:10;">
	<!ENTITY st72 "fill:#FFF4E2;stroke:#231F20;stroke-width:4;stroke-linecap:round;stroke-linejoin:round;stroke-miterlimit:10;">
	<!ENTITY st73 "fill:#D73A4E;">
	<!ENTITY st74 "fill:#F8F8F8;">
	<!ENTITY st75 "fill:#E5E5E5;">
	
		<!ENTITY st76 "display:inline;fill:none;stroke:#231F20;stroke-width:3;stroke-linecap:round;stroke-linejoin:round;stroke-miterlimit:10;">
	<!ENTITY st77 "fill:#7CFFFD;stroke:#231F20;stroke-width:4;stroke-linecap:round;stroke-linejoin:round;stroke-miterlimit:10;">
]>
<svg version="1.1" xmlns="http://www.w3.org/2000/svg" xmlns:xlink="http://www.w3.org/1999/xlink" x="0px" y="0px"
	 viewBox="0 0 1080 1080" style="enable-background:new 0 0 1080 1080;" xml:space="preserve">
<g id="Base" style="&st0;">
	<g style="&st1;">
		<path style="&st12;" d="M508.24,587.86c-32.36,0.5-137.9,8.24-158.24,15.02c-20.33,6.78-25.18,30.02-31.95,33.89
			c-6.78,3.87-42.6,37.76-54.22,134.59c-11.62,96.83-20.33,316.31-20.33,316.31h423.76c0,0-25.13-127.5-27.06-173.98
			c-1.94-46.48-1.68-122.9-10.37-149.04s14.9-107.55,14.9-107.55L508.24,587.86z"/>
		<path style="&st3;" d="M309.07,763.49l45.37,37.79c0,0,11.31-82.1,9.17-116.15c-2.14-34.05-25.66-46.15-31.01-52.93
			c-5.35-6.78,1.51-17.53,6.06-21.48l-0.55-0.87c-10.79,9.59-14.86,23.96-20.06,26.93c-2.75,1.57-10.28,8.08-19.03,21.73
			L309.07,763.49z"/>
		<g>
			<path style="&st12;" d="M345.55,1087.68c-2.23-50.58,2.42-103.7,0.18-154.28c-2.72-61.62,14.13-128.84,9.9-201.94
				c-1.58-27.28,0.45-65.48-20.56-82.95c-10.78-8.97-25.61-14.87-38.89-10.38c-11.28,3.81-18.99,14.14-24.92,24.47
				c-12.22,21.3-19.99,45.14-22.76,69.54c-1.73,15.22-2.91,21.11-2.91,21.11c-2.25,21.6-12.38,181.75-14.63,203.35
				c0,0-8.95,1.22-9.74,12.3c-0.79,11.08,4.86,17.72,4.86,17.72l1,101.06H345.55z"/>
		</g>
		<path style="&st4;" d="M599.82,727.43c15.07,10.64,30,37.22,30,37.22c-5.36-16.11,1.54-53.19,7.63-79.29l1.75-18.16l-32.39,6.1
			l-51.76,31.83l8.75,6.38C567.84,710.27,584.74,716.79,599.82,727.43z"/>
		<path style="&st3;" d="M404.83,594.85c21.39,2.55,72.41,4.93,70.19,13.96c-2.22,9.03-6.35,19.7-20.45,23.39
			c-14.09,3.7-49.11,4.17-44.03,18.9c1.87,5.43,16.47-0.55,27.41,6.65c18.74,12.33,37.07,37.42,37.07,37.42s-21.21-30.52-4.11-54.64
			c17.1-24.12,40.16-49.11,40.16-49.11l5.65-7.15c0,0-42.97,7.8-65.31,7.85S404.83,594.85,404.83,594.85z"/>
		<path style="&st3;" d="M488.03,897.52c-16.12,13.06-53.54,26.23-68.51,24.99s-44.26-10.19-47.26-12.13s-19.92,51.77-15.74,70.36
			c4.19,18.59,7.39,34.63,6.33,44.25s19.96,57.18,19.96,57.18h-36.62c0,0-1.3-81.83-0.17-141.63c1.12-59.8,5.88-110.19,6.28-114.43
			s5.92,43.92,11.27,54.88s55.6,21.03,70.78,28.91C452.92,919.55,488.03,897.52,488.03,897.52z"/>
		<g>
			<g>
				<path style="&st5;" d="M398.97,704.27c5.58,3.2,11.14,6.33,16.34,10.13c4.53,3.3,8.77,6.97,13.12,10.5
					c4.58,3.72,9.33,7.23,14.5,10.08c2.85,1.57,5.81,2.94,8.83,4.13c2.93,1.15,5.65,2.6,8.33,4.26c5.91,3.67,11.8,8.15,18.89,9.12
					c2.07,0.28,2.48-2.58,0.38-2.84c-6.21-0.79-11.56-4.67-16.73-7.89c-2.67-1.66-5.39-3.26-8.3-4.46
					c-3.07-1.26-6.13-2.44-9.07-3.98c-10.2-5.34-18.39-13.36-27.54-20.2c-5.56-4.15-11.65-7.85-18.4-9.67
					C398.83,703.3,398.52,704.01,398.97,704.27L398.97,704.27z"/>
			</g>
		</g>
		<path style="&st6;" d="M522.34,871.07c-31.95,34.38-80.37,48.76-105.54,32.85s-35.83-10.97-44.54-15.37"/>
		<path style="&st6;" d="M579.47,878.78c7.75,10.2,15.04,30.73,30.28,31.6s29.99-19.52,29.44-31.6"/>
		<path style="&st4;" d="M503.01,766.26c2.31,1.26,16.71,7.18,24.12,8.6c7.41,1.42,21.63-4.3,21.63-4.3l9.26-13.29
			c0,0-3.8,10.14-15.29,8.91c-11.49-1.23-16.65-1.11-19.93,0C519.51,767.29,503.01,766.26,503.01,766.26z"/>
		<g>
			<g>
				<path style="&st5;" d="M480.67,754.56c6.16,3.9,12.4,7.64,18.73,11.27c2.96,1.7,5.91,3.7,9.13,4.88
					c3.14,1.15,6.1,0.54,9.07-0.76c2.93-1.29,5.71-2.62,8.85-3.38c3.08-0.75,6.25-1.05,9.42-0.94c3.18,0.11,6.29,0.69,9.32,1.66
					c1.48,0.47,3.05,0.97,4.61,0.56c1.3-0.35,2.35-1.21,3.17-2.25c1.17-1.47,2.06-3.18,3.03-4.79c1.02-1.7,2.05-3.39,3.07-5.09
					c2.1-3.47,4.36-6.89,5.6-10.76c0.28-0.88-0.91-1.53-1.53-0.89c-2.4,2.44-4.13,5.37-5.89,8.3c-1.79,2.97-3.57,5.94-5.36,8.91
					c-0.62,1.03-1.21,2.3-2.19,3.04c-1.21,0.91-2.81,0.09-4.07-0.3c-2.89-0.89-5.89-1.41-8.91-1.58c-5.9-0.34-11.83,0.76-17.24,3.12
					c-2.66,1.16-5.42,3.11-8.46,2.68c-1.49-0.21-2.87-0.89-4.19-1.57c-1.59-0.82-3.17-1.65-4.76-2.48
					c-6.94-3.6-13.91-7.07-20.99-10.35C480.61,753.62,480.21,754.27,480.67,754.56L480.67,754.56z"/>
			</g>
		</g>
		<g>
			<g>
				<path style="&st5;" d="M526.95,785.21c5.16,1.5,10.27,2.03,15.61,1.25c2.6-0.38,5.15-1.15,7.58-2.15
					c1.21-0.5,2.41-1.04,3.56-1.68c1.11-0.61,2.3-1.29,2.43-2.64c0.05-0.49-0.38-0.9-0.8-1.05c-1.04-0.36-2.15,0.37-3.04,0.87
					c-1.09,0.6-2.21,1.17-3.35,1.66c-2.23,0.96-4.58,1.62-6.95,2.15c-4.73,1.06-9.93,1.32-14.69,0.33
					C526.48,783.77,526.13,784.97,526.95,785.21L526.95,785.21z"/>
			</g>
		</g>
		<path style="&st7;" d="M460.27,878.78c-19.56-4.25-27.37,16.12-12.97,18.49C461.69,899.65,484.51,884.05,460.27,878.78z"/>
		<path style="&st7;" d="M613.06,885.4c-12.85-2.45-11.64,14.26,0,14.26S628.03,888.25,613.06,885.4z"/>
		<g>
			<g>
				<path style="&st5;" d="M407.46,649.15c3.93-1,8.31-1.03,12.34-1.22c6.61-0.31,13.22-0.56,19.83-0.88
					c6.24-0.31,12.5-0.57,18.73-1.04c3.63-0.27,7.57-0.26,10.93-1.81c1.08-0.5,0.57-2.39-0.62-2.28
					c-10.41,0.96-20.87,1.66-31.3,2.35c-6.33,0.42-12.65,0.94-18.96,1.53c-3.77,0.35-7.8,0.45-11.47,1.49
					C405.76,647.62,406.26,649.46,407.46,649.15L407.46,649.15z"/>
			</g>
		</g>
		<g>
			<g>
				<path style="&st5;" d="M449.65,634.95c4.79-1.07,9.82-0.54,14.7-0.52c3.45,0.01,8.28,0.57,11.28-1.46
					c1.04-0.71,0.59-2.16-0.62-2.28c-4.28-0.41-9.17,0.71-13.53,0.86c-4.12,0.14-8.37,0.41-12.35,1.55
					C447.94,633.43,448.44,635.22,449.65,634.95L449.65,634.95z"/>
			</g>
		</g>
		<g>
			<g>
				<path style="&st5;" d="M473.15,622.65c2.52-0.53,4.61-0.16,7.1,0.14c2.19,0.27,4.6,0.22,6.32-1.27
					c0.67-0.58,0.34-1.89-0.54-2.05c-2.2-0.4-4.45,0.44-6.73,0.26c-2.36-0.18-4.42,0.29-6.66,1.05
					C471.46,621.19,471.93,622.91,473.15,622.65L473.15,622.65z"/>
			</g>
		</g>
		<g>
			<g>
				<path style="&st5;" d="M349.47,840.96c4.84,17.38,9.67,34.83,20.85,49.36c2.94,3.82,6.06,7.39,7.45,12.1
					c0.96,3.24,1.4,6.59,2.54,9.78c1.53,4.29,4.58,8.43,9.54,6.3c1.42-0.61,0.61-2.75-0.75-2.77c-6.12-0.08-6.37-9.85-7.79-14.3
					c-2.14-6.72-7.48-11.34-11.59-16.82c-9.67-12.88-14.52-28.75-18.95-44.02C350.53,839.76,349.23,840.11,349.47,840.96
					L349.47,840.96z"/>
			</g>
		</g>
		<g>
			<g>
				<path style="&st5;" d="M391.87,1072.06c-5.93-11.49-9.56-24.14-8.76-37.16c0.54-8.77,3.07-17.16,5.51-25.55
					c0.95-3.27,1.84-6.54,2.31-9.91c0.88-6.29,0.62-12.43,3.64-18.22c2.68-5.14,10.22-15.38,1.67-18.98
					c-1.39-0.59-2.49,1.54-1.44,2.48c4.29,3.88-1.42,10.75-3.47,14.61c-2.56,4.81-3.06,9.67-3.37,15.03
					c-0.45,7.68-2.48,14.82-4.27,22.26c-4.76,19.8-2.51,38.03,7.02,56.13C391.11,1073.52,392.27,1072.84,391.87,1072.06
					L391.87,1072.06z"/>
			</g>
		</g>
		<g>
			<g>
				<path style="&st5;" d="M390.68,936.93c-1.35,6.22-0.96,12.56,2.86,17.84c0.61,0.84,2.22,0.38,1.81-0.76
					c-1.9-5.3-3.29-10.79-2.41-16.45C393.16,936.1,391,935.43,390.68,936.93L390.68,936.93z"/>
			</g>
		</g>
		<g>
			<g>
				<g>
					<path style="&st5;" d="M264.9,933.03c-1.4,3.49-1.19,6.22-0.51,9.85c1.22,6.62,0.73,13.11,0.49,19.8
						c-0.05,1.26,1.82,1.47,2.16,0.29c1.79-6.07,2.23-12.19,1.09-18.43c-0.67-3.64-2.07-7.2-1.08-10.93
						C267.43,932.2,265.42,931.73,264.9,933.03L264.9,933.03z"/>
				</g>
			</g>
			<g>
				<g>
					<path style="&st5;" d="M265.09,861.12c-0.31,5.21-2.72,10.03-3.02,15.21c-0.3,5.18,1.91,10.05,2.43,15.13
						c1.06,10.18-2.05,20.14,0.48,30.36c0.28,1.14,2.02,0.88,2.03-0.27c0.03-5.09-0.51-10.15-0.36-15.25
						c0.15-4.94,1.09-10.09,0.52-15c-0.59-5.05-3.05-9.82-2.95-14.96c0.1-5.16,2.42-10.04,2.64-15.21
						C266.91,859.98,265.16,859.99,265.09,861.12L265.09,861.12z"/>
				</g>
			</g>
		</g>
		<g>
			<path style="&st12;" d="M570.23,706.37c-12.81,4.99-15.15,15-28.07,19.69c-8.54,3.1-18.54,4.01-18.54,4.01
				s-17.95-0.56-31.56-15.03c-10.92-11.61-38.28-48.36-24.91-69.74c0.89-1.42,7.86-11.2,18.56-26.05c1.1-1.52,1.67-5.37,2.86-6.94
				c1.37-1.81,5.45-3.09,6.87-4.96c4.23-5.59,5.44-12.13,9.77-17.8c4.84-6.34,12.78-8.42,17.14-14.05
				c8.73-11.27,15.85-23.58,18.75-26.73l16.93-12.03l30.71,141.94c0,0-2.26,18.78-4.98,22.2
				C577.14,709.19,570.23,706.37,570.23,706.37z"/>
			<g>
				<path style="&st3;" d="M574.64,528.82l-15.47-6.14c-2.89,7.13-13.36,20.56-26,35.75l0,0l0.31,18.53c0,0-10.1,15.45-2.97,32.08
					c7.13,16.63,13.96,52.31,13.96,52.31s-17.57,55.22-30.5,58.18c-12.87,2.95-38.68-27.06-38.96-27.37
					c1.26,2.1,2.61,4.29,4.09,6.58c25.82,40.02,54.22,34.86,72.3,21.95c6.04-4.31,9.73-8.76,16.91-14.32
					c3.58-2.77,5.47,1.99,12-2.77c10.11-7.38,19.5-20.35,19.5-20.35L574.64,528.82z"/>
				<path style="&st13;" d="M544.48,416.92c0,0-40.28-24.99-60.62-9.5c-20.33,15.49-31.61,82.78-6.44,116.67s78.04,30.32,81.34,7.09
					C562.06,507.93,544.48,416.92,544.48,416.92z"/>
				<path style="&st3;" d="M523.6,519.69c-14.26-17.58-14.6-13.2-10.32-29.43s15.07-3.7,7.95-25.82s-16.76-38.72-29.11-32.54
					c-12.36,6.18-8.82,23.43-8.82,23.43s7.23-17.49,18.21-13.21c10.98,4.28-1.43,23.91-2.15,41.02
					C498.64,500.24,523.6,519.69,523.6,519.69z"/>
				<path style="&st12;" d="M853.51,375.6c0.69,40.67,7.27,285.96,4.36,303.39c-2.9,17.43-35.35,16.14-35.35,16.14
					s-8.71,15.49-28.08,27.11c-19.37,11.62-99.73,10.65-112.32,5.81c-12.59-4.84-23.24-25.18-31.95-26.14
					c-8.71-0.97-45.53,20.2-68.77-12.73c-23.24-32.92-38.71-241.93-36.78-293.25c0.78-20.67-4.48-53.86-0.16-75.78
					c2.43-12.33,17.41-35.12,21.77-46.91c7.12-19.26,12.46-15.84,26.81-31.26c38.73-41.64,100.7-41.64,137.49-37.76
					c36.79,3.87,80.37,46.48,92.95,60.03c12.59,13.56,7.64,23.72,12.48,30.49c4.84,6.78,13.66,14.05,14.63,18.89
					C851.57,318.47,853.05,348.5,853.51,375.6z"/>
				<path style="&st4;" d="M763.41,425.36c0.13-1.2-2.51,17.11,1.05,24.71c3.56,7.6,6.55,20.91,17.72,31.6
					c11.17,10.69,26.08,10.51,26.08,10.51s-22.33-3.03-34.16-33.68c-5.58-14.48-3.87-17.06-3.87-17.06S762.46,433.91,763.41,425.36z
					"/>
				<path style="&st4;" d="M699.83,431.02l-8.03,7.85c0,0-1.75,24.08-10.36,33.21c-8.6,9.13-25.08,18.8-25.08,18.8
					s4.5,4.82,15.19-1.59c10.69-6.42,27.22-17.2,25.35-39.56c-0.28-3.38-0.13-6.3,1.88-7.6
					C700.79,440.8,700.82,433.87,699.83,431.02z"/>
				<path style="&st3;" d="M850.61,681.19c-7.13,2.23-22.54,3.94-22.54,3.94s0.72-13.12-3.42-6.94
					c-4.14,6.18-35.7,27.15-76.09,26.95c-40.4-0.2-60.12,4.27-69.15-3.81c-9.03-8.08-25.56-24.21-25.56-24.21l-1.19,12.44
					c0,0-35.98,5.5-50.24-0.68c-14.26-6.18-32.18-32.55-32.18-32.55s-0.16,0.2-0.41,0.58c3.58,15.06,7.46,26.44,11.58,32.28
					c23.24,32.92,60.05,11.76,68.77,12.73c8.71,0.97,19.37,21.3,31.95,26.14c12.59,4.84,92.95,5.81,112.32-5.81
					c19.37-11.62,28.08-27.11,28.08-27.11s32.44,1.29,35.35-16.14c0.47-2.83,0.69-11.67,0.73-24.66
					C857.81,665.45,855.62,679.62,850.61,681.19z"/>
				<path style="&st4;" d="M771.41,545.05c0,0,7.53,2.68,20.14,8.38c12.61,5.7,25.82,17.1,30.08,19.22s5.32,5.11,5.32,5.11
					s-7.57-11.13-14.82-18.44c-7.25-7.32-38.56-24.93-38.56-24.93L771.41,545.05z"/>
				<path style="&st4;" d="M625.36,579.42c0,0,12.85-9.77,22.22-18.59c9.37-8.82,42.78-14.96,46.39-16.7
					c3.61-1.74,13.91,5.53,16.68,4.95c2.76-0.58-11.86-11.77-11.86-11.77l0.48-4.91c0,0-33.21,15.3-38.76,16.33
					c-5.55,1.03-29.06,14.79-30.45,17.77C628.67,569.47,625.36,579.42,625.36,579.42z"/>
				<path style="&st6;" d="M748.17,354.3c0,7.75-1.94,26.14-5.81,36.79c-3.87,10.65,0.97,99.73,2.9,102.64
					c1.94,2.9,21.3,0.97,26.14,6.78s0,39.7,0,44.54s-39.7,6.78-50.35,5.81c-10.65-0.97-22.27-13.56-22.27-13.56l1.89-19.16"/>
				<path style="&st6;" d="M698.79,530.92c-12.7,5.58-60.03,23.81-66.81,32.52c-6.78,8.71-9.68,32.92-13.56,40.67
					c-3.87,7.75-11.62,24.21-11.62,28.08"/>
				<path style="&st6;" d="M773.56,534.4c0,0,34.64,22.27,43.36,28.08s10.65,18.09,12.59,24.05c1.94,5.97,10.65,16.62,12.59,24.36
					c1.94,7.75,0,13.56,0,13.56"/>
				<path style="&st9;" d="M676.29,296.13c3.44,6.02,10.76,21.95,11.19,25.82c0.43,3.87-43.55,1.15-58.18,6.74
					c-14.63,5.59-29.48,13.77-29.48,13.77s-3.66-15.49-4.09-16.78c-0.43-1.29,17.21-18.5,30.55-27.11S676.29,296.13,676.29,296.13z"
					/>
				<path style="&st9;" d="M783.36,298.29l-7.32,31.42c0,0,22.38-3.44,36.58-2.15c14.2,1.29,23.35,11.19,23.35,11.19l4.63-17.64
					c0,0-16.78-21.52-27.54-22.81C802.29,297,783.36,298.29,783.36,298.29z"/>
				<path style="&st10;" d="M661.64,385.93c-22.1,0.31-23.1,49.7,0.14,50.35C685.03,436.93,685.67,385.6,661.64,385.93z"/>
				<path style="&st10;" d="M800.92,390.33c-18.24,0.25-19.06,41.03,0.12,41.56C820.21,432.42,820.75,390.05,800.92,390.33z"/>
				<path style="&st6;" d="M700.3,411.11c0,0,2.16,20.65-8.49,27.75c0,0,2.9,39.38-39.7,53.58"/>
				<path style="&st6;" d="M766.58,413.69c0,0-6.67,18.72,3.66,27.76c0,0,1.41,37.83,38.02,50.74"/>
			</g>
			<g>
				<g>
					<path style="&st5;" d="M557.8,701.65c5.49,1.78,10.49,5.68,16.49,5.6c5.81-0.08,11.78-4.96,12.93-10.61
						c0.27-1.33-1.21-2.19-2.23-1.3c-2.45,2.15-3.8,5.32-6.68,7.04c-2.36,1.4-5,1.53-7.64,1.1c-4.22-0.7-8.27-2.41-12.44-3.38
						C557.21,699.86,556.81,701.33,557.8,701.65L557.8,701.65z"/>
				</g>
			</g>
			<path style="&st3;" d="M733.4,250.39c-9.59,1.99-21.56-1.44-30.14,0s-6.46,6.6,1.33,5.67c7.8-0.93,16.86,4.8,24.6,3.12
				c7.74-1.68,20.41-3.14,22.58-6.54C753.94,249.23,742.61,248.48,733.4,250.39z"/>
			<path style="&st3;" d="M689.02,277.67c15.58,2.25,31.24,16.41,40.17,16.41s14.6-0.83,23.09-8.21c8.5-7.38,11.6-17.69,20.05-12.8
				c0,0-4.32-8.18-21.93,1.73s-17.48,11.24-30.22,4.16C707.43,271.89,689.02,277.67,689.02,277.67z"/>
			<g>
				<g>
					<path style="&st5;" d="M677.83,280.54c9.61-3.65,20.28-4.94,30.39-2.73c5.17,1.13,10.06,3.14,14.81,5.41
						c3.27,1.56,6.46,2.73,10.14,2.3c7.61-0.89,13.21-6.86,19.91-9.94c9.24-4.24,18.89-1.73,26.78,3.97
						c1.69,1.22,3.7-1.46,2.21-2.87c-5.82-5.5-14.43-7.8-22.29-6.86c-8.87,1.06-14.77,7.09-22.56,10.67
						c-5.97,2.74-10.38,0.42-15.96-1.95c-4.36-1.85-8.83-2.91-13.51-3.5c-10.43-1.31-20.62-0.15-30.36,3.88
						C676.4,279.33,676.8,280.93,677.83,280.54L677.83,280.54z"/>
				</g>
			</g>
			<g>
				<g>
					<path style="&st5;" d="M714.32,256.78c6.48,3.68,13.06,4.21,20.33,2.77c4.16-0.82,8.2-2.2,12.22-3.54
						c3.96-1.33,8.52-2.24,11.95-4.68c0.81-0.58,0.62-2.08-0.55-2.03c-6.54,0.31-13.26,4.19-19.49,6.09
						c-7.61,2.33-16.46,4.37-23.88,0.4C714.25,255.45,713.69,256.42,714.32,256.78L714.32,256.78z"/>
				</g>
			</g>
			<g>
				<g>
					<path style="&st5;" d="M696.27,257.73c4.67-0.64,9.46,0.22,14.13-0.25c1.2-0.12,1.43-1.65,0.28-2.08
						c-4.89-1.83-10.03-0.4-14.73,1.21C695.24,256.86,695.54,257.83,696.27,257.73L696.27,257.73z"/>
				</g>
			</g>
			<g>
				<g>
					<path style="&st5;" d="M625.77,430.96c2.03-1.2,4.5-1.39,6.76-0.8c1.14,0.29,2.2,0.78,3.16,1.46c0.44,0.32,0.85,0.69,1.22,1.08
						c0.19,0.21,0.37,0.42,0.53,0.65c0.08,0.12,0.15,0.25,0.23,0.37c0.06,0.11,0.17,0.52,0.13,0.16c0.22-0.39,0.44-0.77,0.67-1.16
						c-2.18,1.3-4.31,2.71-6.42,4.13c-1.06,0.71-2.13,1.4-3.17,2.13c-1.07,0.75-2.22,1.43-2.88,2.58c-0.5,0.89,0.33,1.68,1.2,1.56
						c1.27-0.17,2.36-1.01,3.42-1.71c1.03-0.67,2.04-1.37,3.06-2.06c2.08-1.4,4.15-2.82,6.15-4.32c0.64-0.48,0.98-1.48,0.27-2.11
						c-0.5-0.45-0.87-1.09-1.32-1.6c-0.49-0.55-1.05-1.03-1.65-1.47c-1.16-0.86-2.52-1.48-3.91-1.83c-2.84-0.72-5.93-0.33-8.39,1.31
						C623.83,430.01,624.72,431.57,625.77,430.96L625.77,430.96z"/>
				</g>
			</g>
			<path style="&st11;" d="M551.66,544.13c1.35-0.91-0.08,3.85-5.39,4.03c-10.72,0.35-29.66,1.62-35.2-1.4
				c-11.89-3.31-27.38-14.25-31.76-21.45c-13.4-22.01-17.37-36.74-15.5-68.58c1.86-31.85,13.69-46.92,23.82-51.62
				c10.13-4.7,35.16-3.05,56.86,11.81"/>
			<g>
				<g>
					<path style="&st5;" d="M830.3,425.91c-1.1-0.2-2.17-0.22-3.27-0.1c-1.18,0.13-2.32,0.52-3.06,1.49
						c-0.87,1.14-0.77,2.76,0.04,3.9c0.92,1.3,2.41,2.02,3.75,2.8c0.81,0.47,1.62,0.97,2.46,1.4c0.43,0.22,0.86,0.45,1.29,0.67
						c0.26,0.13,0.51,0.26,0.79,0.32c0.15,0.03,0.34,0.07,0.49,0.07c0.11-0.01,0.22-0.03,0.32-0.04c0.3-0.15,0.38-0.18,0.23-0.08
						c0.49-0.11,0.83-0.71,0.67-1.18c0.01,0.03,0.06,0.3-0.03-0.08c-0.04-0.16-0.06-0.31-0.14-0.45c-0.13-0.22-0.35-0.44-0.54-0.6
						c-0.31-0.25-0.67-0.44-1-0.65c-0.63-0.4-1.26-0.78-1.91-1.15c-1.18-0.66-2.4-1.28-3.51-2.04c-0.01-0.01-0.18-0.13-0.07-0.04
						c0.13,0.09-0.08-0.07-0.11-0.09c-0.1-0.08-0.19-0.17-0.28-0.25c-0.09-0.08-0.17-0.17-0.26-0.26c-0.1-0.11,0.01,0.02,0.03,0.04
						c-0.04-0.07-0.08-0.14-0.13-0.2c-0.03-0.04-0.11-0.23-0.02,0c-0.02-0.05-0.04-0.11-0.06-0.17c-0.02-0.06-0.03-0.12-0.04-0.17
						c0,0.02,0.01,0.19,0.01,0.06c0-0.09,0.01-0.19,0-0.28c-0.01-0.14-0.01,0.1-0.02,0.12c0.02-0.06,0.02-0.12,0.03-0.17
						c0.01-0.05,0.04-0.11,0.05-0.16c0,0.02-0.12,0.2-0.04,0.1c0.04-0.05,0.11-0.16,0.12-0.22c0.03-0.1-0.04,0.04-0.06,0.07
						c0.03-0.03,0.05-0.07,0.08-0.1c0.08-0.08,0.16-0.16,0.25-0.24c0.09-0.08-0.04,0.03-0.05,0.04c0.04-0.03,0.08-0.05,0.12-0.08
						c0.08-0.05,0.16-0.1,0.24-0.15c0.08-0.05,0.17-0.09,0.26-0.14c0.04-0.02,0.09-0.04,0.13-0.06c-0.13,0.06,0.03-0.01,0.08-0.03
						c0.94-0.35,1.91-0.37,2.94-0.28C830.99,427.59,831.21,426.08,830.3,425.91L830.3,425.91z"/>
				</g>
			</g>
			<g>
				<g>
					<path style="&st5;" d="M622.75,414.21c2.68,0.49,5.32,1.1,8,1.54c2.21,0.37,4.49,1.06,6.69,0.51c1.01-0.25,1.21-1.74,0.29-2.24
						c-2.01-1.09-4.34-0.99-6.59-1.19c-2.71-0.24-5.43-0.32-8.14-0.52C621.93,412.24,621.67,414.02,622.75,414.21L622.75,414.21z"/>
				</g>
			</g>
			<g>
				<g>
					<path style="&st5;" d="M637.12,497.92c1.18,0.09,2.54-0.27,3.64-0.68c1.63-0.6,3.93-0.92,4.6-2.68
						c0.18-0.48-0.12-1.15-0.56-1.38c-1.6-0.83-3.2,0.4-4.62,1.18c-0.93,0.51-1.98,1.5-3.06,1.63
						C635.91,496.15,635.85,497.83,637.12,497.92L637.12,497.92z"/>
				</g>
			</g>
			<g>
				<g>
					<path style="&st5;" d="M822.81,497.59c-1.13-0.72-2.24-1.36-3.43-1.97c-1.37-0.71-2.44-2.27-4.1-1.85
						c-0.51,0.13-0.91,0.65-0.9,1.18c0.07,3.18,5.46,3.55,7.68,4.41C823.12,499.76,823.69,498.15,822.81,497.59L822.81,497.59z"/>
				</g>
			</g>
			<path style="&st11;" d="M548.84,496.96c3.14,21.64,5.1,82.2,10.33,94.76c1.96,4.7,2.42,36.48,5.58,40.48
				c2.87,3.62,7.37,34.58,8.89,38.95c12.73,36.57,28.96,35.68,44.75,36.31c14.25,0.57,29.95-13.62,38.97-1.62
				c2.5,3.32,12.28,12.85,15.17,15.84c11.04,11.44,69.73,8.94,83.99,8.41c48.48-1.81,61.48-28.47,64.68-32.85
				c3.21-4.38,3.28,0.92,22.75-4.95c19.48-5.87,14.25-16.97,14.65-32.46c0.26-10.03-3.95-216.16-3.58-222.98
				c0.41-7.66-2.89-16.94,0.65-23.74c0,0-3.53-78.86-4.24-91.02c-0.71-12.17-3.63-13.53-10.84-21.71
				c-7.21-8.18-6.85-11.35-9.1-22.92c-2.25-11.57-25.2-33.39-55.45-53.98s-52.45-19.9-87.03-20.53s-56.2,11.82-72.11,19.8
				c-15.9,7.98-36.26,30.44-44.61,38.4c-8.35,7.96-17.89,35.77-25.58,51.85c-7.7,16.08-3.25,50.05-3.49,77.35
				c-0.04,4.74,3.89,82.39,4.21,87.12C548.11,487.09,548.84,496.96,548.84,496.96z"/>
			<g>
				<path style="&st12;" d="M878.73,416.71c-8.32-6.19-24.51,6.93-24.61,7.02c0.28,4.42,1.13,9,0.91,13.11
					c-0.15,2.75,0.45,38.02,1.2,79.74l0.54,23.95c0,0,7.15,2.83,14.26-2.65c9.71-7.48,12.52-15.9,12.89-33.77
					c0.37-17.88-1.41-49.46,2.4-59.74S887.07,422.92,878.73,416.71z"/>
				<g>
					<g>
						<path style="&st5;" d="M878.48,430.86c-6.04-3.52-15.94-4.76-18.58,3.5c-3.03,9.46,2.87,21.72,5.77,30.53
							c3.69,11.22,5.83,23.08,4.54,34.95c-0.27,2.49-0.59,5.48-3.35,6.21c-2.76,0.73-4.81-0.02-6.98,2.44
							c-4.86,5.5-4.19,15.26-3.84,22.07c0.08,1.48,2.39,1.49,2.31,0c-0.3-5.68-0.22-14.19,3.15-18.97
							c2.65-3.75,8.09-0.93,10.63-5.64c1.34-2.48,1.5-5.64,1.62-8.39c0.27-6.11-0.06-12.47-0.81-18.54
							c-1.19-9.69-5.71-18.86-8.41-28.18c-1.36-4.7-3.53-11.21-1.71-16.07c2.24-5.97,10.11-4.26,14.43-1.84
							C878.61,433.68,879.81,431.63,878.48,430.86L878.48,430.86z"/>
					</g>
				</g>
				<path style="&st3;" d="M875.54,431.02c0,0-5.52-0.72-8.04,8.81c-3.02,11.44,1.54,26.97,1.54,26.97s-8.33-18.36-8.25-27.28
					S870.01,427.39,875.54,431.02z"/>
				<path style="&st3;" d="M855.01,442.03c0.07,6.03,0.28,27.5,7.85,37.92c7.58,10.42,10.48,23.35,4.66,26.19s-9.5,9.16-10.34,14.84
					S855.01,442.03,855.01,442.03z"/>
			</g>
			<g>
				<g>
					<path style="&st5;" d="M538.01,540c2.6-0.75,5.23-1.37,7.82-2.16c2.16-0.66,4.53-1.02,6.23-2.56c0.84-0.76,0.12-2.02-0.87-2.09
						c-2.29-0.15-4.53,1.16-6.63,1.97c-2.39,0.93-4.7,2.01-7.07,2.98C536.38,538.59,536.78,540.35,538.01,540L538.01,540z"/>
				</g>
			</g>
			<g>
				<g>
					<path style="&st5;" d="M542.49,529.34c1.71-0.44,3.43-0.75,5.13-1.23c1.69-0.48,3.58-0.68,4.64-2.18
						c0.47-0.67-0.03-1.59-0.73-1.8c-1.69-0.51-3.46,0.63-5.03,1.27c-1.62,0.66-3.15,1.48-4.75,2.18
						C540.72,528.03,541.46,529.61,542.49,529.34L542.49,529.34z"/>
				</g>
			</g>
			<g>
				<g>
					<path style="&st5;" d="M825.25,417.74c2.7-2.07,5.85-4.48,7.24-7.68c0.46-1.05-0.49-2.13-1.58-1.58
						c-3.11,1.55-5.38,4.82-7.3,7.62C822.96,417.05,824.3,418.47,825.25,417.74L825.25,417.74z"/>
				</g>
			</g>
			<g>
				<g>
					<path style="&st5;" d="M539.67,573.68c2.99-1.51,5.87-3.01,8.56-5.06c2.41-1.83,5.52-4.1,6.92-6.84
						c0.83-1.61-0.9-3.63-2.59-2.59c-2.48,1.52-4.45,4.12-6.61,6.08c-2.4,2.18-4.83,4.49-7.49,6.35
						C537.22,572.5,538.29,574.38,539.67,573.68L539.67,573.68z"/>
				</g>
			</g>
			<g>
				<g>
					<path style="&st5;" d="M826.57,669.29c-1.03-0.76-1.48-0.86-1.34-0.3c0.04,0.18,0.04,0.36-0.01,0.54
						c-0.13,0.18-0.04,0.64-0.1,0.85c-0.28,1-0.14,2.34-0.25,3.38c-0.3,2.98-0.82,5.94-1.29,8.9c-0.41,2.61-0.81,5.23-1.37,7.82
						c-0.14,0.67-0.9,2.34-0.74,2.98c0.31,1.23,1.09-0.3,1.56-0.14c-1.03-0.36-1.98,0.42-2.33,1.32c-1.21,3.18,3.2,3.49,4.52,1.09
						c1.82-3.34,1.87-8.41,2.3-12.1c0.5-4.32,1.18-9.31,0.5-13.64c-0.21-1.32-1.41-4.55-3.12-2.38
						C823.96,668.77,825.49,670.43,826.57,669.29L826.57,669.29z"/>
				</g>
			</g>
			<g>
				<g>
					<path style="&st5;" d="M653.28,672.61c-0.98-0.67-1.42-0.73-1.3-0.19c0.02,0.1,0.03,0.21,0.05,0.31
						c-0.13,0.16-0.06,1.14-0.09,1.33c-0.21,1.18-0.06,2.57-0.13,3.77c-0.2,3.2-0.6,6.38-0.96,9.56c-0.36,3.16-0.69,6.32-1.21,9.46
						c-0.16,0.97-0.69,2.29-0.63,3.25c0.14,2.44-1.2-1.39,2.13,0.17c-1.09-0.51-2.43-0.13-2.78,1.13c-0.07,0.25-0.11,0.52-0.11,0.77
						c-0.01,0.7,0.39,1.49,1.04,1.81c5.59,2.75,5.57-15.98,5.66-18.36c0.16-4.06,0.65-8.65-0.25-12.65
						c-0.29-1.29-1.5-4.03-3.08-2.05C650.66,672.1,652.2,673.75,653.28,672.61L653.28,672.61z"/>
				</g>
			</g>
			<g>
				<g>
					<path style="&st5;" d="M544.42,588.02c3.08-1.42,6.32-2.5,9.36-4.01c2.13-1.06,3.9-2.61,4.34-5.05
						c0.19-1.07-0.11-2.45-1.21-2.96c-0.68-0.32-1.28-0.48-2.02-0.26c-0.82,0.24-1.67,0.95-1.83,1.83
						c-0.31,1.69-2.26,2.29-3.64,2.99c-2.64,1.33-4.81,2.96-6.73,5.23C541.62,587.04,542.93,588.71,544.42,588.02L544.42,588.02z"/>
				</g>
			</g>
			<g>
				<g>
					<path style="&st5;" d="M550.04,606.47c2.52-0.98,5.12-1.78,7.65-2.73c2.4-0.9,3.41-2.62,3.63-5.11c0.29-3.37-4.96-3.35-5.25,0
						c0.06-0.14,0.05-0.06-0.03,0.23c-0.1,0.32-0.09,0.33,0.02,0.05c-0.15,0.26-0.14,0.25,0.05-0.03c0.27-0.18,0.28-0.19,0.03-0.03
						c-0.17-0.05-1.1,0.48-1.58,0.67c-2.61,1.06-4.45,2.58-6.12,4.85C547.71,605.34,548.91,606.91,550.04,606.47L550.04,606.47z"/>
				</g>
			</g>
			<g>
				<g>
					<path style="&st5;" d="M484.24,446.57c2.14-5.87,6.46-14.2,12.97-16.14c7.65-2.28,11.88,9.55,14.41,14.86
						c5.4,11.34,8.89,23.36,10.88,35.74c0.8-1.05,1.6-2.1,2.4-3.15c-5.74-0.22-10.6,3.25-13.02,8.38
						c-2.78,5.88-1.34,12.65,1.16,18.35c2.86,6.52,7.88,11.44,10.97,17.76c2,4.09,5.2,7.21,10.06,5.77c2.09-0.62,2.15-3.7,0-4.29
						c-1.93-0.53-3.31-0.54-4.58-2.24c-0.86-1.15-1.29-2.73-1.95-4c-1.84-3.6-4.8-6.31-6.91-9.73c-2.61-4.22-5.02-9.24-5.04-14.31
						c-0.01-5.46,3.39-10.83,9.3-10.7c1.74,0.04,2.67-1.62,2.4-3.15c-2.83-16.05-8.82-34.41-19.26-47.26
						c-10.32-12.71-22.25,3.73-25.7,13.6C481.92,447.25,483.81,447.75,484.24,446.57L484.24,446.57z"/>
				</g>
			</g>
		</g>
		<path style="&st3;" d="M303.09,1023.43c-5.66,12.17-9.79,15.32-12,14.43c-2.21-0.89,2.56,10.8-2.35,9.85s-15.51-9.85-15.51-9.85
			s2.39,4.07,3.66,6.87c1.27,2.8,8.98,10.68,8.34,22.44c-0.64,11.76-8.91,18.54-8.91,18.54h22.95c0,0-7.3-29-4.29-40.98
			C297.97,1032.75,303.09,1023.43,303.09,1023.43z"/>
		<g>
			<g>
				<path style="&st5;" d="M301.3,1090.04c-4.52-14.62-7.07-29.7-4.88-44.99c1.07-7.44,5.34-13.22,8.05-20.01
					c1.85-4.64,2.71-10.55,2.39-15.5c-0.11-1.67-2.38-2.02-2.92-0.39c-1.95,5.92-1.56,11.8-4.34,17.56
					c-3.1,6.42-5.77,12.61-6.21,19.8c-0.94,15.32,1.93,29.39,6.59,43.91C300.26,1091.22,301.56,1090.87,301.3,1090.04L301.3,1090.04
					z"/>
			</g>
		</g>
		<g>
			<g>
				<path style="&st5;" d="M263.05,1009.21c-1.35,6.22-0.96,12.56,2.86,17.84c0.61,0.84,2.22,0.38,1.81-0.76
					c-1.9-5.3-3.29-10.79-2.41-16.45C265.53,1008.38,263.38,1007.72,263.05,1009.21L263.05,1009.21z"/>
			</g>
		</g>
		<g>
			<g>
				<path style="&st5;" d="M272.63,1038.21c5.19,10.11,10.48,22.74,2.32,32.61c-3.89,4.7-10.87,10.3-9.34,17.26
					c0.26,1.18,2.18,1.52,2.71,0.35c1.69-3.69,2.4-7.03,4.99-10.33c2.24-2.85,4.85-5.47,6.49-8.74c5.28-10.56-0.99-22.48-5.99-31.83
					C273.39,1036.75,272.24,1037.44,272.63,1038.21L272.63,1038.21z"/>
			</g>
		</g>
		<g>
			<g>
				<g>
					<path style="&st5;" d="M645.59,1087.98c0.4,2.18,1.98,2.46,3.01,0.59c1.72-3.15,0.71-8.8,0.33-12.11
						c-1.3-11.23-5.9-25.01-18.39-27.65c-1.41-0.3-1.9,1.62-0.59,2.12c8.8,3.36,12.98,12.69,14.9,21.31
						c0.82,3.68,1.26,7.4,1.43,11.17c0.05,1.05-0.24,2.63,0.11,3.59c0.08,0.21-0.18,0.8-0.08,0.92c0.48,0.6,1.72,0.52,1.43-0.55
						C647.37,1085.98,645.33,1086.58,645.59,1087.98L645.59,1087.98z"/>
				</g>
			</g>
			<g>
				<g>
					<path style="&st5;" d="M626.98,989.58c2.26,4.19,2.87,8.95,4.81,13.26c1.64,3.63,4.43,6.31,7.19,9.11
						c5.56,5.65,7.43,12.11,9.62,19.52c2.25,7.6,4.28,15.27,6.8,22.78c1.83,5.46,3.66,11.44,7.59,15.8
						c0.78,0.87,2.24-0.26,1.62-1.25c-7.5-11.96-10.09-27.45-14.29-40.76c-1.71-5.4-3.32-10.85-7.22-15.11
						c-3.28-3.58-7.46-6.45-9.6-10.95c-2.04-4.3-2.68-9.09-5-13.29C627.96,987.69,626.44,988.58,626.98,989.58L626.98,989.58z"/>
				</g>
			</g>
		</g>
		<g>
			<path style="&st4;" d="M668.18,581.56c0,0,9.45,0.81,16.1-3.79c6.65-4.61,9.13-7.56,9.13-7.56s-0.13,7.89,0,9.22
				c0.13,1.34-8.89,2.7,7.26,2.85s27.03,0.8,32.41,0c5.37-0.8,22.01-5.27,22.72-8.5c0.71-3.23,5.46-1.33,5.46-1.33l-1.03,13.07
				c0,0-86.65,1.2-90.92-1.42C665.03,581.48,668.18,581.56,668.18,581.56z"/>
			<g>
				<g>
					<path style="&st5;" d="M646.4,574.96c7.27,7.94,17.57,10.13,27.93,10.74c14.51,0.86,29.18,0.35,43.71,0.38
						c14.78,0.04,29.57,0.36,44.34,0.24c7.25-0.06,14.44-0.86,21.68-0.97c5.63-0.08,11.42,0.5,16.95-0.81
						c2.07-0.49,1.41-3.3-0.47-3.48c-12.04-1.18-24.26,0.54-36.3,0.75c-13.74,0.24-27.51-0.13-41.26-0.14
						c-14.02-0.01-28.03,0.06-42.05,0.04c-11.18-0.02-23.88-0.6-32.17-9.13C647.25,571.04,644.94,573.38,646.4,574.96L646.4,574.96z
						"/>
				</g>
			</g>
			<g>
				<g>
					<path style="&st5;" d="M690.19,567.53c1.51,2.77,1.72,5.82,0.87,8.83c-0.84,2.96-3.12,4.36-4.48,6.93
						c-0.67,1.27,0.15,2.94,1.67,2.92c4.35-0.06,7.12-5.08,7.91-8.88c0.88-4.24-0.43-8.7-3.53-11.69
						C691.36,564.41,689.34,565.97,690.19,567.53L690.19,567.53z"/>
				</g>
			</g>
			<g>
				<g>
					<path style="&st5;" d="M759.5,566.28c-1.11,5.77-2.95,11.97-1.49,17.88c0.54,2.17,4.04,2.28,4.51,0
						c1.16-5.62,0.08-11.7,0.57-17.39C763.26,564.72,759.89,564.25,759.5,566.28L759.5,566.28z"/>
				</g>
			</g>
			<path style="&st4;" d="M728.29,608.54c-12.67-1.58-30.68-0.68-33.21-1.8c-2.53-1.11,1.69,7.71,14.78,9.29
				c13.09,1.58,18.34,17.18,32.34,5.42c10.93-9.19,30.51-11.71,29.48-13.89c-1.04-2.18-10.62-4.44-23.78-2.24
				C734.75,607.52,728.29,608.54,728.29,608.54z"/>
			<g>
				<g>
					<path style="&st5;" d="M770.3,604.35c-0.09,0-0.43-0.04-0.11,0c0.32,0.04-0.07-0.02-0.15-0.03c-0.23-0.05-0.45-0.1-0.67-0.16
						c-0.55-0.14-1.1-0.27-1.67-0.35c-0.78-0.11-1.56-0.2-2.33,0.05c-0.35,0.11-0.71,0.26-1.03,0.46c-0.5,0.31-0.71,0.73-0.92,1.25
						c-0.14,0.35,0.03,0.81,0.28,1.06c0.3,0.3,0.66,0.33,1.06,0.28c-0.34,0.05,0.04,0.02,0.13,0.02c0.23-0.01,0.44-0.07,0.67-0.13
						c0.06-0.02,0.13-0.03,0.2-0.04c0.16-0.04-0.39,0.03-0.11,0.01c0.13-0.01,0.26-0.01,0.4-0.01c0.26,0,0.51-0.02,0.77,0
						c0.14,0.01,0.27,0.02,0.41,0.03c0.18,0.02-0.42-0.07-0.12-0.02c0.07,0.01,0.13,0.02,0.2,0.03c0.99,0.17,1.99,0.55,3.01,0.56
						c0.78,0.01,1.54-0.69,1.5-1.5C771.76,605.03,771.14,604.37,770.3,604.35L770.3,604.35z"/>
				</g>
			</g>
			<g>
				<g>
					<path style="&st5;" d="M702.75,606.18c-0.51,0-1.02,0.1-1.52,0.2c-0.24,0.05-0.48,0.1-0.72,0.14
						c-0.24,0.04-0.54,0.15-0.78,0.13c0.04,0,0.36-0.04,0.15-0.02c-0.07,0.01-0.14,0.02-0.21,0.02c-0.13,0.01-0.26,0.02-0.38,0.03
						c-0.27,0.01-0.54-0.01-0.81,0c-0.14,0-0.28,0-0.42-0.01c-0.07,0-0.14-0.02-0.21-0.02c0.06,0,0.32,0.06,0.13,0.01
						c-0.36-0.09-0.7-0.07-1.07-0.07c-0.85-0.01-1.32,0.93-0.94,1.64c0.2,0.38,0.47,0.73,0.86,0.94c0.32,0.18,0.69,0.31,1.04,0.41
						c0.66,0.18,1.34,0.16,2.01,0.08c0.64-0.08,1.26-0.19,1.89-0.33c0.23-0.05,0.47-0.1,0.7-0.14c0.05-0.01,0.11-0.02,0.16-0.03
						c0.23-0.04-0.36,0.04-0.19,0.03c0.1-0.01,0.2-0.02,0.3-0.02c0.78-0.01,1.54-0.68,1.5-1.5
						C704.22,606.87,703.59,606.17,702.75,606.18L702.75,606.18z"/>
				</g>
			</g>
			<g>
				<g>
					<path style="&st5;" d="M710.46,608.19c3.63,0.82,7.17,1.7,10.9,2.03c3.56,0.32,7.16,0.29,10.73,0.07
						c7.24-0.46,14.42-1.62,21.6-2.64c1-0.14,1.56-1.42,1.31-2.31c-0.3-1.08-1.3-1.45-2.31-1.31c-6.86,0.97-13.7,2.2-20.6,2.82
						c-3.34,0.3-6.7,0.5-10.06,0.48c-3.71-0.02-7.53,0.05-11.2-0.5C709.96,606.71,709.56,607.99,710.46,608.19L710.46,608.19z"/>
				</g>
			</g>
		</g>
	</g>
	<g style="&st1;">
		<g>
			<g>
				<path style="&st14;" d="M672.84,984.9c1.8-3.04-16.93-130.07-16.93-130.07s-12.7-103.17-12.51-113.96
					c0.19-10.79,3.31-32.44,3.31-32.44s1.08-3.17,2.09-7.38c-8.79-0.64-19.98,6.82-30.4,6.4c-11.06-0.44-22.33-0.15-32.47-12.5
					c-0.66,2.7-1.4,4.95-2.18,5.93c-5.35,6.73-10.9,6.16-12.81,5.7c0.94,10.19,1.29,18.19,1.12,21.31
					c-0.63,11.63-27.33,28.87-54.95,21.25c-27.61-7.62-73.64-72.42-66.28-90.07c7.36-17.65,10.96-29.6,30.23-35.3
					c0,0,0.53-0.05,1.49-0.12c1.02-1.41,2.07-2.87,3.17-4.4c1.1-1.52,1.67-5.37,2.86-6.94c1.37-1.81,5.45-3.09,6.87-4.96
					c4.23-5.59,5.44-12.13,9.77-17.8c3.39-4.44,8.29-6.79,12.43-9.73c-29.1,0.46-115.56,0.06-137.79,8.04
					c-26.3,9.44-30.15,15.44-41.72,21.98s-18.86,14.81-18.86,14.81s-3.33,7.34-7.18,7.25c-3.86-0.08-23.11,9.83-31.78,19.47
					c-8.68,9.64-17.88,51.45-34.69,101.87c-19.61,58.81-5.73,123.84-11.31,137.79c-5.58,13.95-3.54,34.95-5.46,52.83
					c-1.93,17.88-15.39,45.44-7.67,50.12s125.02,4.25,125.02,4.25l-0.62,91.98h345.56C691.11,1090.22,671.03,987.94,672.84,984.9z"
					/>
				<g>
					<path style="&st5;" d="M675,986.16c0.79-1.51,0.45-3.56,0.34-5.19c-0.23-3.31-0.6-6.6-0.97-9.9
						c-1.17-10.42-2.54-20.82-3.93-31.21c-3.12-23.35-6.44-46.67-9.82-69.98c-0.75-5.18-1.48-10.35-2.27-15.52
						c-0.1-0.63,0.13,1.08,0.01,0.08c-0.09-0.8-0.2-1.6-0.29-2.4c-0.41-3.33-0.81-6.66-1.22-9.99c-2.93-24.2-5.82-48.41-8.43-72.65
						c-0.93-8.68-1.99-17.38-2.45-26.1c-0.28-5.17,0.34-10.39,0.86-15.52c0.62-6.06,1.04-12.33,2.23-18.31
						c0.52-2.61,1.51-5.16,2.14-7.75c0.4-1.64-0.77-3.08-2.41-3.16c-5.53-0.28-10.87,1.76-16.04,3.47
						c-5.59,1.85-10.78,3.07-16.69,2.85c-4.8-0.18-9.61-0.41-14.24-1.8c-5.74-1.73-10.32-5.34-14.13-9.88
						c-1.22-1.46-3.74-0.61-4.18,1.1c-1.01,3.97-2.39,6.92-6.21,8.95c-1.76,0.94-3.87,1.35-5.71,0.93
						c-1.45-0.33-3.32,0.71-3.16,2.41c0.57,6.3,1.12,12.64,1.16,18.97c0.02,3.45-0.94,6.04-3.2,8.7
						c-7.17,8.43-19.18,12.94-29.94,14.01c-10.19,1.01-20.04-0.78-28.66-6.28c-7.46-4.76-13.98-10.97-20-17.41
						c-12.61-13.49-24.24-29.27-31.45-46.37c-2.09-4.95-4.79-11.89-3.55-17.01c0.46-1.89,1.39-3.68,2.12-5.47
						c1.1-2.67,2.2-5.35,3.4-7.97c1.93-4.21,4.13-8.42,7.22-11.9c3.78-4.25,8.66-7.13,14.01-8.97c0.53-0.18,1.16-0.49,1.69-0.62
						c0.87-0.21,1.76,0.03,2.58-0.45c1.45-0.85,2.57-3.18,3.52-4.54c0.91-1.31,1.48-2.62,1.98-4.14c0.43-1.31,0.68-2.81,1.73-3.77
						c2.04-1.87,4.8-2.46,6.56-4.75c2.41-3.13,3.89-6.83,5.54-10.39c1.69-3.66,3.59-7.17,6.63-9.89c2.77-2.47,6.1-4.24,9.13-6.36
						c1.93-1.35,1.38-4.7-1.26-4.66c-24.48,0.38-48.97,0.39-73.44,1.27c-13.33,0.48-26.69,1.11-39.97,2.45
						c-10.15,1.02-20,2.43-29.56,6.08c-6.97,2.66-13.86,5.63-20.32,9.38c-4.19,2.43-8.11,5.24-12.15,7.9
						c-6.13,4.04-12.48,7.5-18.13,12.25c-2.96,2.49-5.88,4.96-7.79,8.32c-1.32,2.32-2.59,4.14-5.27,4.54
						c-2.1,0.31-4.11,1.24-6.04,2.09c-6.73,2.97-13.16,6.89-19,11.35c-4.16,3.18-8.05,6.61-10.6,11.23
						c-2.43,4.42-4.21,9.23-5.89,13.97c-5.3,14.93-9.5,30.25-14.04,45.41c-2.91,9.7-5.87,19.38-8.97,29.02
						c-3.15,9.79-6.42,19.48-8.6,29.55c-4,18.47-5.5,37.4-5.7,56.27c-0.15,14.87,0.71,29.69,1.01,44.55
						c0.09,4.54,0.25,9.29-0.39,13.77c-0.24,1.71-0.81,3.32-1.4,4.98c-1.35,3.79-2.1,7.77-2.64,11.75
						c-1.26,9.39-1.22,18.89-1.6,28.34c-0.33,8.3-1.21,16.22-3.32,24.26c-1.89,7.2-4.25,14.27-5.98,21.51
						c-1.13,4.74-2.81,11-0.55,15.66c2.36,4.88,9.55,4.65,14.15,5.07c20.02,1.83,40.27,1.89,60.35,2.16
						c17.18,0.24,34.37,0.33,51.55,0.3c0.94,0,1.89,0,2.83-0.01c-0.83-0.83-1.67-1.67-2.5-2.5c-0.07,10.32-0.14,20.64-0.21,30.97
						c-0.11,16.55-0.22,33.1-0.34,49.66c-0.03,3.79-0.05,7.57-0.08,11.36c-0.01,1.35,1.15,2.5,2.5,2.5c11.53,0,23.05,0,34.58,0
						c27.49,0,54.98,0,82.47,0c33.23,0,66.45,0,99.68,0c28.73,0,57.46,0,86.2,0c14,0,28.07,0.45,42.07,0c0.19-0.01,0.38,0,0.57,0
						c1.72,0,2.72-1.59,2.41-3.16c-2.23-11.37-4.41-22.74-6.56-34.13c-3.52-18.64-7.06-37.29-10.03-56.02
						c-0.54-3.4-1.04-6.62-1.4-9.78c-0.12-1.02-0.24-2.04-0.28-3.07c-0.01-0.32-0.01-0.64-0.02-0.96
						C675.21,985.03,675.15,985.87,675,986.16c1.47-2.86-2.84-5.39-4.32-2.52c-0.7,1.36-0.45,3.05-0.31,4.51
						c0.26,2.76,0.67,5.5,1.07,8.24c1.25,8.43,2.73,16.83,4.22,25.22c3.35,18.83,6.92,37.63,10.54,56.41
						c0.83,4.29,1.66,8.58,2.5,12.86c0.8-1.05,1.61-2.11,2.41-3.16c-11.53,0-23.05,0-34.58,0c-27.49,0-54.98,0-82.47,0
						c-33.23,0-66.45,0-99.68,0c-28.73,0-57.46,0-86.2,0c-9.56,0-19.11,0-28.67,0c-4.34,0-9.08-0.54-13.4,0
						c-0.18,0.02-0.38,0-0.57,0c0.83,0.83,1.67,1.67,2.5,2.5c0.07-10.32,0.14-20.64,0.21-30.97c0.11-16.55,0.22-33.1,0.34-49.66
						c0.03-3.79,0.05-7.57,0.08-11.36c0.01-1.35-1.15-2.5-2.5-2.5c-12.31,0.04-24.61-0.01-36.92-0.11
						c-21.42-0.17-42.86-0.4-64.26-1.45c-6.64-0.33-14.09-0.59-20.07-1.7c-0.83-0.15-1.66-0.32-2.46-0.61
						c-0.08-0.03,0.22,0.28-0.03,0c-0.51-0.56-0.73-0.87-0.94-1.7c-0.55-2.12-0.15-4.6,0.21-6.72c0.55-3.23,1.38-6.41,2.25-9.56
						c1.97-7.18,4.28-14.27,5.91-21.53c1.84-8.21,2.16-16.6,2.42-24.98c0.29-9.04,0.28-18.24,1.99-27.16
						c0.95-4.95,3.09-9.46,3.61-14.5c1.17-11.32-0.08-23.01-0.43-34.35c-0.54-17.19-0.52-34.43,1.15-51.56
						c0.94-9.61,2.41-19.16,4.56-28.57c2.27-9.93,5.6-19.51,8.7-29.19c5.66-17.7,10.8-35.55,16.21-53.33
						c3.29-10.82,6.21-22.55,11.85-32.46c2.59-4.54,7.03-8.01,11.46-11.11c5.47-3.84,11.45-7.52,17.72-9.89
						c2.31-0.87,3.65-0.48,5.8-1.56c2.51-1.26,4.32-3.81,5.68-6.2c0.19-0.33,1.27-2.18,0.45-1.09c0.31-0.41,0.72-0.77,1.07-1.14
						c1.98-2.04,4.1-3.95,6.3-5.75c5.36-4.4,11.46-7.55,17.19-11.38c4.09-2.73,8.11-5.56,12.41-7.97
						c10.27-5.77,21.53-10.47,33.18-12.44c11.33-1.92,22.88-2.65,34.34-3.29c26.29-1.48,52.64-1.71,78.97-1.96
						c4.37-0.04,8.75-0.08,13.12-0.15c-0.42-1.55-0.84-3.11-1.26-4.66c-4.15,2.9-8.78,5.29-12.14,9.16
						c-3.63,4.17-5.43,9.31-7.87,14.18c-1.06,2.12-2.17,4.51-4.2,5.85c-1.67,1.1-3.6,1.87-5.02,3.31c-1.49,1.51-2.01,3.7-2.65,5.65
						c-0.82,2.49-2.57,4.47-4.09,6.58c0.72-0.41,1.44-0.83,2.16-1.24c-4.85,0.37-9.91,2.81-13.94,5.47
						c-3.58,2.37-6.6,5.35-9.12,8.82c-2.64,3.63-4.61,7.7-6.41,11.8c-1.74,3.97-3.95,8.16-5.06,12.35
						c-1.38,5.23,0.25,11.11,1.99,16.05c2.54,7.19,6.13,14.02,10.07,20.53c9.23,15.27,20.67,29.78,34.08,41.6
						c5.43,4.79,11.36,9.35,18.05,12.24c9.64,4.15,21.04,4.34,31.18,2.16c10.32-2.22,21.46-7.4,27.88-16.09
						c2.33-3.15,3.33-6.42,3.32-10.31c-0.01-6.41-0.58-12.83-1.16-19.2c-1.05,0.8-2.11,1.61-3.16,2.41
						c3.28,0.73,6.62,0.15,9.56-1.44c4.88-2.63,7.19-6.76,8.5-11.94c-1.39,0.37-2.79,0.74-4.18,1.1c3.91,4.66,8.66,8.35,14.38,10.5
						c4.95,1.87,10.3,2.33,15.54,2.56c6.03,0.27,11.46-0.25,17.26-2.06c5.63-1.75,11.45-4.48,17.46-4.18
						c-0.8-1.05-1.61-2.11-2.41-3.16c-0.65,2.64-1.66,5.25-2.17,7.91c-0.43,2.25-0.63,4.56-0.92,6.83c-1,7.75-1.96,15.55-2.32,23.36
						c-0.34,7.3,0.77,14.71,1.51,21.95c2.5,24.51,5.44,48.98,8.38,73.45c1.21,10.09,2.43,20.16,3.89,30.21
						c3.16,21.64,6.25,43.3,9.22,64.97c1.56,11.4,3.09,22.81,4.48,34.23c0.81,6.63,1.97,13.43,2,20.12c0,0.27-0.05,0.6-0.01,0.87
						c0.05,0.38,0.08-0.35,0.23-0.65C669.2,986.49,673.51,989.02,675,986.16z"/>
				</g>
			</g>
			<g>
				<path style="&st3;" d="M481.05,623.77c0,0,0.53-0.05,1.49-0.12c1.02-1.41,2.07-2.87,3.17-4.4c1.1-1.52,1.67-5.37,2.86-6.94
					c1.37-1.81,5.45-3.09,6.87-4.96c4.23-5.59,5.44-12.13,9.77-17.8c3.39-4.44,8.29-6.79,12.43-9.73
					c-17.71,0.28-56.64,0.24-89.43,1.97l0.04,0.49c23.17,9.85,42.77,15.93,40.45,23.58c-2.32,7.65-16.34,20.19-21.39,42.37
					c-1.37,6.02,1.12,6.33,6.3,4.15C459.41,638.37,464.34,628.72,481.05,623.77z"/>
				<path style="&st3;" d="M648.79,701.05c-8.79-0.64-19.98,6.82-30.4,6.4c-11.06-0.44-22.33-0.15-32.47-12.5
					c-0.66,2.7-1.4,4.95-2.18,5.93c-5.71,7.19-11.65,6.05-13.15,5.61c-0.27,3.47-0.75,6.64,1.08,9.44l1.72,3.96l-1.42,1.51
					c-1.71,4.82-0.03,21.92-17.79,24.56c-17.76,2.64-62.1,4.57-81.29-30.04c-19.18-34.61-22.01-38.89-22.01-38.89
					c0.29,0.85,0.58,1.77,0.86,2.77c6.06,21.61,9.48,75.89,51.26,86.46c43.71,11.06,65.57-0.09,73.28-19.8
					c4.34-11.09,4.34-20.9,3.2-26.49c9.5,9.69,19.26-0.12,36.47,7.51c9.78,4.33,20.11,13.2,27.88,20.85
					c-0.3-3.57-0.46-6.17-0.44-7.45c0.19-10.79,3.31-32.44,3.31-32.44S647.78,705.27,648.79,701.05z"/>
			</g>
			<path style="&st3;" d="M381.95,769.84c0.06,24.99,7,102.83,12.44,140.55c5.43,37.72,4.48,57.65,3.99,67.45
				c-0.49,9.8,16.01-2.16,41.51-3.41c25.5-1.25-38.8,29.61-32.68,34.43c6.11,4.82,22.57,2.89,30.74,0
				c8.16-2.89,34.33-15.45,47.76-10.62c13.43,4.83-46.25,27.77-45.82,31.25c0.43,3.48-10.07,21.8,0,26.62s18.71,14.28,35.12,16.3
				c16.41,2.02,21.24,17.81,21.24,17.81h-150.7l0.62-91.98l32.56-0.56"/>
			<g>
				<g>
					<path style="&st5;" d="M346.17,1000.74c11.51-0.2,23.02-0.4,34.53-0.6c1.64-0.03,3.27-0.06,4.91-0.09
						c1.4-0.02,2.43-1.13,2.5-2.5c0.47-9.73,0.84-19.54,0.38-29.27c-0.13-2.64-0.35-5.12-0.27-7.76c0.15-4.56,0.29-9.13,0.41-13.69
						c0.34-13.16,0.6-26.34,0.36-39.5c-0.17-9.5-0.85-19-1.29-28.49c-1.17-25.04-2.24-50.09-2.96-75.14
						c-0.34-11.87-0.08-23.74-1.94-35.51c-2.56-16.29-8.65-31.55-15.3-46.54c-3.43-7.75-6.96-15.46-10.16-23.31
						c-3.51-8.61-7.13-17.12-11.52-25.33c-4.8-8.95-10.25-17.78-16.89-25.5c-0.31-0.36-0.62-0.72-0.94-1.06
						c-2.21-2.35-5.74,1.19-3.54,3.54c1.27,1.35,2.42,2.81,3.55,4.27c0.9,1.17,2.6,3.5,3.73,5.15c1.72,2.5,3.37,5.06,4.95,7.66
						c4.18,6.89,7.88,14.07,11.18,21.42c3.75,8.35,6.99,16.93,10.7,25.3c6.5,14.67,13.35,29.25,17.22,44.89
						c2.13,8.58,3.32,17.34,3.6,26.18c0.14,4.44,0.1,8.89,0.21,13.33c0.58,24.35,1.66,48.7,2.75,73.03c0.43,9.58,1,19.16,1.42,28.74
						c0.57,12.77,0.32,25.58,0.06,38.35c-0.12,5.69-0.26,11.37-0.44,17.06c-0.08,2.7-0.32,5.44-0.27,8.15
						c0.03,1.7,0.31,3.43,0.39,5.14c0.14,3.07,0.16,6.15,0.14,9.23c-0.03,5.63-0.19,11.26-0.41,16.88c-0.04,0.93-0.08,1.87-0.12,2.8
						c0.83-0.83,1.67-1.67,2.5-2.5c-11.51,0.2-23.02,0.4-34.53,0.6c-1.64,0.03-3.27,0.06-4.91,0.09
						C342.96,995.79,342.95,1000.79,346.17,1000.74L346.17,1000.74z"/>
				</g>
			</g>
		</g>
		<g>
			<g>
				<path style="&st15;" d="M462.95,673.31l2.78-1.32c-2.94-9.62-3.31-19.11,1.42-26.68c0.89-1.42,7.86-11.2,18.56-26.05
					c1.1-1.52,1.67-5.37,2.86-6.94c1.37-1.81,5.45-3.09,6.87-4.96c4.23-5.59,5.44-12.13,9.77-17.8c4.47-5.85,11.57-8.08,16.07-12.81
					c-47.65,2.05-103.94,4.88-124.98,7.53c-39.21,4.94-43.73,13.67-58.17,25.57s-14.79,18.63-23.47,23.12s-4.5,9.37-8.36,16.44
					c-3.86,7.07-19.29,56.57-30.86,116.78c-11.57,60.21-31.83,324.03-31.83,324.03h225.09l41.45-286.61l-13.99-4.97L462.95,673.31z"
					/>
				<path style="&st15;" d="M655.27,848.34c-1.6-17.16-12.13-112.55-12.13-112.55s0.44-5.71,2.07-12.41
					c1.36-5.62,1.83-17.54,1.94-21.24c-11.38,2.03-40.21,15-61.19-7.34c-0.67,2.77-1.43,5.08-2.22,6.08
					c-6.6,8.31-13.51,5.49-13.51,5.49c-0.22,0.09-0.43,0.18-0.64,0.26l15.86,29.39l-15.22,65.25l29.58,288.94h87.61v-6.11
					c0,0-20.91-132.44-23.24-149.07C661.87,918.41,656.87,865.5,655.27,848.34z"/>
			</g>
			<path style="&st4;" d="M655.27,848.34c-0.14-1.46-0.34-3.49-0.59-5.96c3.56,68.52,9.55,187.75,8.91,202.81
				c-0.9,21.29-0.97,21.38-13.84,20.46s-17.07,0.27-26.67,0c-4.96-0.14-16.45-3.11-26.39-5.95l3.12,30.52h87.61v-6.11
				c0,0-20.91-132.44-23.24-149.07C661.87,918.41,656.87,865.5,655.27,848.34z"/>
			<g>
				<path style="&st4;" d="M462.95,673.31l2.78-1.32c-2.94-9.62-3.31-19.11,1.42-26.68c0.89-1.42,7.86-11.2,18.56-26.05
					c1.1-1.52,1.67-5.37,2.86-6.94c1.37-1.81,5.45-3.09,6.87-4.96c4.23-5.59,5.44-12.13,9.77-17.8c4.47-5.85,11.57-8.08,16.07-12.81
					c-26.77,1.15-56.25,2.55-80.69,4.02C452.26,593.13,458,599.9,458,599.9c-41.6,1.65-33.56,6.53-41.21,34.12
					c-7.65,27.59-11.5,80.53,5.21,117.06s26.23,42.47,36.26,61.36c10.03,18.89,10.42-1.42,10.42-1.42s16.45,8.5,17.03,18.9
					c0.58,10.4,9.45,55.22,9.45,55.22l5.13-13.46l9.85-68.09l-13.99-4.97L462.95,673.31z"/>
				<path style="&st4;" d="M647.15,702.13c-11.38,2.03-40.21,15-61.19-7.34c-0.67,2.77-1.43,5.08-2.22,6.08
					c-6.6,8.31-13.51,5.49-13.51,5.49c-0.22,0.09-0.43,0.18-0.64,0.26l15.86,29.39l-15.22,65.25l8.05,78.62l1.18-1.11
					c0,0,0.31-49.74,0-67.76c-0.31-18.01,18.61-19.1,27.64-41.19c9.03-22.08,7.75-34.57,22.2-31.5c6.37,1.35,11.44,5.19,15.11,9.06
					c-0.79-7.15-1.28-11.61-1.28-11.61s0.44-5.71,2.07-12.41C646.57,717.75,647.04,705.84,647.15,702.13z"/>
			</g>
			<path style="&st4;" d="M347.55,643.14c9.9,39.43,25.03,156.99,18.88,215.66c-6.15,58.67-15.69,91.23-2.56,103.23
				c13.13,12.01,16.49,37.72,8.38,40.29c-8.11,2.57-7.46,25.13-2.64,36.35c4.82,11.22,11.8,31.32,7.02,28.99
				s17.75,22.55,17.75,22.55h-75.13l12.19-427.14L347.55,643.14z"/>
			<path style="&st16;" d="M485.71,619.26c-36.31,0-48.25,15.4-53.32,35.07c-5.08,19.67-7.98,79.18,12.67,107.52
				c20.66,28.34,58.51,39.43,58.51,39.43s7.49-38.26-12.79-76.66c-20.28-38.4-20.42-82.37-19.88-84.08
				C471.43,638.81,485.71,619.26,485.71,619.26z"/>
			<path style="&st16;" d="M595.14,702.21c0,0,14.22,27.45,11.66,48.88s-36.57,50.19-36.57,50.19s-6.44-40.75-6.44-65.25
				c0-24.5,2.21-22.55,2.21-22.55l4.23-7.1c0,0,5.12,1.5,10.08-2.77l5.62-7.32c0,0-0.34,2.5,1.92,2.78
				c2.26,0.28,4.16,1.82,4.16,1.82L595.14,702.21z"/>
			<path style="&st15;" d="M325.97,624.65c-19.79,0.96-44.12,7.75-60.19,38.42s-25.07,65.72-28.29,114.73s-17.36,176.3-20.57,211.02
				c-3.21,34.71-3.21,101.39-3.21,101.39l136.41,2.75c0,0-4.43-163.31-3.24-182.58c1.19-19.27,9.64-114.66,12.81-153.11
				C362.86,718.83,359.16,623.05,325.97,624.65z"/>
			<polygon style="&st17;" points="510.13,803.61 530.51,806.9 488.03,1092.97 468.68,1090.22 			"/>
			<path style="&st18;" d="M570.23,801.28c-4.23,1.77-6.44,6.91-6.44,6.91l28.78,282.03h7.25L570.23,801.28z"/>
			<path style="&st18;" d="M510.13,803.61c0,0,7.38,6.11,7.22,8.01c-0.15,1.89-39.98,279.84-39.98,279.84l-8.69-1.24L510.13,803.61z
				"/>
			<path style="&st4;" d="M263.14,1072.41c-22.82-1.74-44.64-27.72-48.73-32.84c-0.02,0.65-0.03,1.31-0.05,1.96
				c1.74,7.61,0.64,28.95-0.64,48.7l136.41,2.75c0,0-4.43-163.31-3.24-182.58c0.72-11.59,4.06-50.73,7.3-88.45
				c-3.36,39.3-16.86,87.13-22.73,95.51c-5.87,8.38-2.8,14.81,0,19.79c2.8,4.98-6.61,18.95-3.35,26.43
				c3.26,7.48,5.19,6.42,7.12,17.08s4.4,22.22,5.57,29.94s5.21,26.04-9.34,46.29C316.89,1077.22,288.46,1074.34,263.14,1072.41z"/>
			<path style="&st6;" d="M480.29,627.33c0,0-27.11,9.75-37.29,17.57c-10.18,7.82-13.89,33.72-13.89,33.72"/>
			<path style="&st6;" d="M471.07,651.37c-10.07-0.04-37.76,28.43-42.13,50.84"/>
			<path style="&st6;" d="M473.79,673.31c-10.22,12.31-33.09,45.24-34.51,56.63c-1.42,11.39-1.38,18.84-1.38,18.84"/>
			<path style="&st6;" d="M484.18,710.27c-9.03,16.92-18.63,23.25-21.97,38.51c-3.35,15.26-3.95,27.34-3.95,27.34"/>
			<path style="&st6;" d="M494.12,731.46c-4.83,7.73-2.99,10.1-8.41,27.77s-1.53,33.2-1.53,33.2"/>
			<path style="&st6;" d="M578.12,705.14c3.31,1.9,11.03,6.82,15.74,10.79c4.71,3.97,10.4,14.16,10.4,14.16"/>
			<path style="&st6;" d="M566,713.47c1.29,3,21.86,17.87,28.71,29.72c6.86,11.85,6.37,22.99,6.37,22.99"/>
			<path style="&st6;" d="M563.84,739.83c9.85,6.64,15.19,18.77,17.71,26.36c1.7,5.13,1.99,22.37,1.99,22.37"/>
		</g>
	</g>
</g>
<g id="Layer_1">
	<g>
		<path style="&st9;" d="M581.31,373.42c-13.71,0.84-76.44,26.38-76.44,26.38s10.09,1.41,13.21,2.16
			c3.12,0.74,11.75,3.79,11.75,3.79s5.97-5.08,9.85-5.5c3.89-0.43,19.02,5.96,19.02,5.96l30.05-3.43l-2.18-29.35H581.31z"/>
		<linearGradient id="SVGID_1_" gradientUnits="userSpaceOnUse" x1="567.8627" y1="325.7869" x2="858.1271" y2="616.0513">
			<stop  offset="0.2654" style="stop-color:#2F3039"/>
			<stop  offset="0.338" style="stop-color:#45464D"/>
			<stop  offset="0.3665" style="stop-color:#3E3F46"/>
			<stop  offset="0.3994" style="stop-color:#2F3039"/>
			<stop  offset="0.595" style="stop-color:#2F3039"/>
			<stop  offset="0.6676" style="stop-color:#45464D"/>
			<stop  offset="0.717" style="stop-color:#43444B"/>
			<stop  offset="0.7347" style="stop-color:#3C3D45"/>
			<stop  offset="0.7474" style="stop-color:#31323A"/>
			<stop  offset="0.7486" style="stop-color:#2F3039"/>
		</linearGradient>
		<path style="opacity:0.9;fill:url(#SVGID_1_);" d="M668.18,373.42c-42.39,0.18-66.68,6.18-68.36,12.51
			c-1.68,6.33-3.6,51.83,13.11,67.01s68.9,9.98,77.79,3.28c8.89-6.7,12-22.46,16.7-38.12c4.7-15.66,6.16-31.56-4.32-38.83
			C695.55,374.05,679.07,373.37,668.18,373.42z"/>
		<linearGradient id="SVGID_2_" gradientUnits="userSpaceOnUse" x1="649.1326" y1="244.517" x2="939.397" y2="534.7814">
			<stop  offset="0.2654" style="stop-color:#2F3039"/>
			<stop  offset="0.338" style="stop-color:#45464D"/>
			<stop  offset="0.3665" style="stop-color:#3E3F46"/>
			<stop  offset="0.3994" style="stop-color:#2F3039"/>
			<stop  offset="0.595" style="stop-color:#2F3039"/>
			<stop  offset="0.6676" style="stop-color:#45464D"/>
			<stop  offset="0.717" style="stop-color:#43444B"/>
			<stop  offset="0.7347" style="stop-color:#3C3D45"/>
			<stop  offset="0.7474" style="stop-color:#31323A"/>
			<stop  offset="0.7486" style="stop-color:#2F3039"/>
		</linearGradient>
		<path style="opacity:0.9;fill:url(#SVGID_2_);" d="M815.6,375.76c-22.4-0.65-45.3,3-50.38,6.86c-5.08,3.86,3.08,32.66,7.14,42.69
			c4.06,10.03,16.49,29,32.35,33.44c15.86,4.44,37.71,1.87,43.29-3.27s6.92-49.71,7.53-60.43c0.61-10.71-5.15-15.94-11.91-16.97
			C836.86,377.04,821.31,375.92,815.6,375.76z"/>
		<path style="&st9;" d="M869.86,368.47c-2.57-1.71-39.07-5.66-61.54-6.47c-22.46-0.81-41.61,7.05-61.39,8.05
			c-19.55,0.98-34.55-5.79-59.44-8.17c-24.9-2.38-96.66,6.95-105.34,8.27s-8.09,20.49-6.94,26.61c1.15,6.12,13.7,3.82,13.65,10.91
			c-0.05,7.09,1.44,63.98,42.13,67.45c26.28,2.24,60.02,1.29,70.38-8.32s16.07-44.37,20.22-50.09c5.23-7.23,7.71-18.34,21.55-17.46
			c11.86,0.76,12,8.84,17.43,21.43c5.43,12.59,12.35,37.51,29.59,46.11c17.25,8.6,57.58,10.1,65.22,0.24
			c7.64-9.85,10.77-63.33,10.45-67.79c-0.32-4.46,1.47-2.66,4.04-4.72C872.43,392.47,872.43,370.19,869.86,368.47z M707.41,418.11
			c-4.7,15.66-7.81,31.41-16.7,38.12c-8.89,6.7-61.07,11.89-77.79-3.28c-16.71-15.18-14.79-60.68-13.11-67.01
			c1.68-6.33,25.97-12.33,68.36-12.51c10.89-0.05,27.38,0.64,34.91,5.86C713.57,386.54,712.11,402.45,707.41,418.11z M855.53,395.04
			c-0.61,10.71-1.96,55.29-7.53,60.43s-27.43,7.71-43.29,3.27c-15.86-4.44-28.29-23.42-32.35-33.44
			c-4.06-10.03-12.22-38.83-7.14-42.69c5.08-3.86,27.98-7.51,50.38-6.86c5.7,0.17,21.25,1.29,28.01,2.32
			S856.14,384.33,855.53,395.04z"/>
		<path style="&st28;" d="M602.91,434.74c1.3,4.44,2.97,8.57,5.1,12.08l44.9-73.06c-5.24,0.22-10.11,0.54-14.61,0.94L602.91,434.74z
			"/>
		<path style="&st28;" d="M703.09,379.28c-4.49-3.12-12.18-4.61-19.96-5.3L638.36,462c9.77,1.16,20.44,0.97,29.67-0.02l35.1-82.68
			C703.11,379.3,703.1,379.29,703.09,379.28z"/>
		<path style="&st28;" d="M797.58,376.1l-26.68,45.26c0.52,1.5,1.02,2.84,1.47,3.94c0.94,2.31,2.32,5.1,4.09,8.07l35.45-57.68
			C807.04,375.65,802.2,375.8,797.58,376.1z"/>
		<path style="&st28;" d="M855.53,395.04c0.61-10.71-5.15-15.94-11.91-16.97c-0.74-0.11-1.6-0.23-2.53-0.34l-40.45,79.52
			c1.33,0.59,2.69,1.1,4.07,1.49c7.26,2.03,15.77,2.59,23.41,2.11l27.33-64.37C855.48,395.95,855.51,395.47,855.53,395.04z"/>
		<path style="&st29;" d="M586.52,382.19c-11.02-0.34-7.06,6.83,0,5.98C593.58,387.32,597.54,382.53,586.52,382.19z"/>
		<path style="&st29;" d="M864.29,379.64c-5.82-0.29-3.73,5.77,0,5.06C868.03,383.98,870.12,379.93,864.29,379.64z"/>
	</g>
</g>
<g id="Cyborg" style="&st0;">
</g>
</svg>
